<?xml version="1.0" standalone="no"?>
<!DOCTYPE svg PUBLIC "-//W3C//DTD SVG 1.1//EN" "http://www.w3.org/Graphics/SVG/1.1/DTD/svg11.dtd" >
<svg xmlns="http://www.w3.org/2000/svg">
<metadata>Generated by IcoMoon</metadata>
<defs>
<font id="sutel_iconos" horiz-adv-x="1024">
<font-face units-per-em="1024" ascent="960" descent="-64" />
<missing-glyph horiz-adv-x="1024" />
<glyph unicode="&#x20;" d="" horiz-adv-x="512" />
<glyph unicode="&#xe600;" d="M511.299 472.059h200.545v-88.643l122.066 133.688-120.617 116.255v-77.020h-201.994zM629.98 592.184h42.629v199.572h-441.774v-523.146l240.261-121.098v123.028h201.513v159.852h-41.656v-118.185h-157.926v361.354l-157.906 77.501h314.86z" />
<glyph unicode="&#xe601;" d="M692.721 850.007c76.257 0 138.092-33.234 138.092-74.24 0-40.965-61.834-74.163-138.092-74.163-76.278 0-138.092 33.193-138.092 74.163 0 41.001 61.814 74.24 138.092 74.24zM692.721 676.46c-75.832 0-138.808 28.677-152.151 66.555v-59.761c13.343-37.873 76.319-66.514 152.151-66.514 75.807 0 138.767 28.641 152.125 66.514v59.761c-13.358-37.878-76.314-66.555-152.125-66.555zM692.721 583.542c-75.832 0-138.808 28.723-152.151 66.555v-59.761c13.343-37.873 76.319-66.555 152.151-66.555 75.807 0 138.767 28.682 152.125 66.555v59.761c-13.358-37.832-76.314-66.555-152.125-66.555zM692.721 490.624c-75.832 0-138.808 28.723-152.151 66.596v-59.761c13.343-37.873 76.319-66.555 152.151-66.555 75.807 0 138.767 28.682 152.125 66.555v59.761c-13.358-37.873-76.314-66.596-152.125-66.596zM692.721 397.788c-75.832 0-138.808 28.682-152.151 66.514v-59.802c13.343-37.837 76.319-66.514 152.151-66.514 75.807 0 138.767 28.677 152.125 66.514v59.802c-13.358-37.832-76.314-66.514-152.125-66.514zM690.913 304.835c-75.832 0-138.783 28.723-152.172 66.555v-59.761c13.384-37.837 76.339-66.555 152.172-66.555 75.786 0 138.762 28.718 152.105 66.555v59.761c-13.343-37.873-76.319-66.555-152.105-66.555zM359.465 478.541c76.293 0 138.132-33.234 138.132-74.24 0-40.965-61.839-74.245-138.132-74.245-76.237 0-138.071 33.28-138.071 74.245-0.005 41.006 61.829 74.24 138.071 74.24zM359.501 304.957c-75.853 0-138.803 28.723-152.172 66.596v-59.756c13.368-37.878 76.319-66.601 152.172-66.601 75.786 0 138.742 28.723 152.105 66.596v59.756c-13.363-37.873-76.314-66.591-152.105-66.591zM359.501 212.081c-75.853 0-138.803 28.682-152.172 66.555v-59.761c13.363-37.873 76.319-66.596 152.172-66.596 75.786 0 138.742 28.718 152.105 66.596v59.761c-13.363-37.873-76.314-66.555-152.105-66.555zM359.501 119.163c-75.853 0-138.803 28.723-152.172 66.555v-59.761c13.363-37.873 76.319-66.555 152.172-66.555 75.786 0 138.742 28.682 152.105 66.555v59.761c-13.363-37.832-76.314-66.555-152.105-66.555z" />
<glyph unicode="&#xe602;" d="M628.050 419.61c0 50.099-40.653 90.783-90.706 90.783h-241.976c-50.13 0-90.706-40.653-90.706-90.783v-241.946h423.383v241.946zM416.369 555.72c58.47 0 105.846 47.391 105.846 105.866 0 58.44-47.375 105.825-105.846 105.825-58.516 0-105.846-47.386-105.846-105.825 0-58.481 47.329-105.866 105.846-105.866zM714.798 569.815l-57.057 67.118 16.077 13.542 28.621-33.7c10.788 31.145 41.928 92.447 129.618 150.636l11.633-17.48c-114.017-75.607-125.788-155.802-125.824-156.575l-3.067-23.542zM714.798 406.374l-57.057 67.087 16.077 13.568 28.621-33.731c10.788 31.176 41.928 92.477 129.618 150.641l11.633-17.449c-114.017-75.612-125.788-155.843-125.824-156.605l-3.067-23.511zM714.798 238.843l-57.057 67.087 16.077 13.537 28.621-33.695c10.788 31.171 41.928 92.442 129.618 150.666l11.633-17.51c-114.017-75.576-125.788-155.776-125.824-156.575l-3.067-23.511z" />
<glyph unicode="&#xe603;" d="M728.376 390.226c0.266 0.696 0.512 1.439 0.845 2.094 4.634 9.764 8.243 19.814 10.911 30.029h-125.66l42.578-32.118 71.327-0.005zM612.25 641.751c2.463-5.007 7.506-7.916 12.78-7.916 2.089 0 4.224 0.492 6.277 1.475 4.803 2.381 7.649 7.178 7.834 12.227 18.335-6.851 35.523-16.323 51.195-28.508 70.902-55.127 94.449-153.902 55.992-234.875-3.364-7.055-0.353-15.549 6.743-18.908 1.992-0.947 4.045-1.357 6.072-1.357 5.35 0 10.419 2.99 12.861 8.079 44.134 92.948 17.106 206.285-64.256 269.496-18.191 14.111-38.205 25.144-59.556 32.978 3.077 4.142 3.835 9.805 1.393 14.725-3.466 7.020-11.981 9.928-19.036 6.487l-23.322-11.489c-7.076-3.487-9.969-12.017-6.477-19.077l11.5-23.337zM742.794 498.145h-229.007l65.792-49.551h165.309c1.659 16.614 0.901 33.311-2.094 49.551zM466.084 611.318c-24.919 0-47.483 7.997-63.58 16.819l-11.484-44.795c14.541-8.079 39.46-15.345 65.116-16.486v-36.388h37.903v39.46c44.052 7.26 67.784 36.383 67.784 70.477 0 34.821-17.987 55.905-63.539 71.946-32.978 11.935-46.372 20.347-46.372 32.568 0 10.747 8.038 21.868 32.937 21.868 27.581 0 45.588-8.822 55.168-13.414l11.484 43.274c-13.394 6.113-30.643 11.858-55.931 12.636v33.715h-37.514v-36.383c-40.996-7.629-64.727-34.089-64.727-68.173 0-37.12 27.955-56.279 68.956-70.062 28.708-9.6 40.955-18.744 40.955-33.352 0.005-14.894-14.945-23.711-37.156-23.711zM279.936 604.918c-23.67 8.576-33.285 14.607-33.285 23.424 0 7.711 5.76 15.708 23.624 15.708 19.835 0 32.799-6.359 39.685-9.641l8.243 31.089c-9.641 4.388-22.026 8.535-40.218 9.068v24.202h-26.972v-26.127c-29.45-5.499-46.515-24.489-46.515-48.978 0-26.701 20.122-40.484 49.551-50.371 20.675-6.892 29.471-13.537 29.471-23.956 0-10.747-10.747-17.101-26.726-17.101-17.884 0-34.145 5.78-45.67 12.14l-8.243-32.241c10.44-5.745 28.324-10.993 46.781-11.853v-26.132h27.238v28.385c31.667 5.212 48.727 26.132 48.727 50.616 0.005 25.108-12.918 40.202-45.691 51.768zM672.41 352.287l-198.374 145.859c-16.102 0-29.184-13.046-29.184-29.164v-239.181c0-12.882 8.223-14.971 29.184-29.164l198.369-145.905c16.097 0 29.184 13.087 29.184 29.21v239.222c-0.328 10.578-29.179 29.123-29.179 29.123zM841.569 468.982c0 16.118-13.066 29.164-29.164 29.164h-2.627c6.031-44.877-0.369-91.556-20.654-134.292-5.478-11.484-17.249-18.908-29.967-18.908-4.92 0-9.718 1.065-14.193 3.2-7.055 3.323-12.554 8.904-15.79 15.877h-37.309l3.876-2.954c0 0 29.164-16.696 29.164-29.164v-145.864h87.537c16.118 0 29.164 13.046 29.164 29.169l-0.036 253.773zM334.244 770.514c-12.984 4.675-18.273 7.997-18.273 12.8 0 4.265 3.185 8.617 13.005 8.617 10.849 0 17.946-3.446 21.745-5.294l4.49 17.106c-5.294 2.381-12.058 4.675-22.026 4.966v13.245h-14.792v-14.31c-16.159-2.995-25.513-13.455-25.513-26.87 0-14.643 11.013-22.149 27.177-27.643 11.3-3.773 16.138-7.383 16.138-13.123 0-5.908-5.883-9.354-14.618-9.354-9.846 0-18.729 3.2-25.047 6.641l-4.552-17.679c5.745-3.159 15.549-6.031 25.656-6.482v-14.316h14.95v15.549c17.357 2.872 26.726 14.316 26.726 27.771-0.026 13.727-7.117 22.016-25.068 28.375z" />
<glyph unicode="&#xe604;" d="M293.299 422.692h267.146v-26.143h-267.146v26.143zM293.299 495.652h267.146v-26.143h-267.146v26.143zM560.445 349.732h-63.032l26.107-26.148h36.925zM293.299 568.612h267.146v-26.143h-267.146v26.143zM662.098 189.348v-82.488c0-2.391-1.951-4.316-4.378-4.316h-82.447l-14.362-14.387-14.346 14.387h-294.508c-2.391 0-4.337 1.925-4.337 4.316v596.767c0 2.391 1.946 4.357 4.337 4.357h37.33v-30.464c0-26.455 21.499-47.933 47.913-47.933h235.218c26.435 0 47.892 21.478 47.892 47.933v30.464h37.309c2.432 0 4.378-1.966 4.378-4.357v-316.257l43.556 43.576v272.681c0 26.414-21.499 47.892-47.939 47.892h-37.309v10.184c0 26.414-21.463 47.892-47.892 47.892h-235.218c-26.414 0-47.913-21.478-47.913-47.892v-10.184h-37.325c-26.399 0-47.913-21.478-47.913-47.892v-596.767c0-26.378 21.519-47.892 47.913-47.892h405.658c26.44 0 47.939 21.519 47.939 47.892v126.065l-43.556-43.576zM332.943 751.519v10.184c0 2.432 1.966 4.357 4.352 4.357h235.218c2.391 0 4.321-1.925 4.321-4.357v-84.188c0-2.427-1.925-4.393-4.321-4.393h-235.218c-2.386 0-4.352 1.966-4.352 4.393v74.004zM293.299 323.584h100.029l26.127 26.148h-126.157zM293.299 250.624h105.144l-26.127 26.143h-79.017zM560.911 248.003l-102.487 102.502-60.79-60.82 163.277-163.313 282.312 282.317-60.79 60.82z" />
<glyph unicode="&#xe605;" d="M784.338 807.27h-577.285v-636.206h233.815v1.838l111.59-111.57 18.847 18.806-130.437 130.422v19.43h-174.848v518.313l518.318 0.041v-518.354h-174.843v-58.926h233.789v636.206zM367.657 529.229h194.714v-47.263h-194.714v47.263zM562.371 591.549v-162.263l141.834 76.293z" />
<glyph unicode="&#xe606;" d="M719.186 844.616h-517.396v-790.871h640.599v667.254l-123.203 123.617zM323.072 201.021l-50.14 50.427v49.439l50.14-50.427 84.337 48.445h64.635l-148.972-97.884zM323.072 364.406l-50.14 47.662v49.439l50.14-47.703 84.337 51.169h64.635l-148.972-100.567zM323.072 523.791l-50.14 48.942v49.439l50.14-48.942 84.337 49.935h64.635l-148.972-99.374zM739.569 227.702h-221.455v31.636h221.455v-31.636zM739.569 377.994h-221.455v31.636h221.455v-31.636zM739.569 544.067h-221.455v31.636h221.455v-31.636zM794.936 694.364h-126.546v126.505h23.747v-102.799h102.799v-23.706z" />
<glyph unicode="&#xe607;" d="M775.373 749.102h70.41v-564.439h-70.41v564.439zM775.373 168.105h70.415l-35.185-85.857zM775.101 761.907h70.41c0 0 7.45 42.793-35.164 44.57 0 0-35.246 1.736-35.246-44.57zM249.165 654.193h419.052v-54.134h-419.052v54.134zM249.165 494.561h419.052v-54.175h-419.052v54.175zM249.165 333.747h419.052v-54.134h-419.052v54.134z" />
<glyph unicode="&#xe608;" d="M519.311 125.742c-36.265 0-65.7-29.435-65.7-65.725 0-36.244 29.435-65.628 65.7-65.628 36.291 0 65.7 29.384 65.7 65.628 0 36.337-29.404 65.725-65.7 65.725zM281.334 275.958c-3.845-3.845-6.072-9.175-6.072-14.648v-90.793c0-11.407 9.247-20.767 20.716-20.767 11.428 0 20.695 9.364 20.695 20.767h-0.046v70.17h182.938v-73.093c0-11.402 9.293-20.675 20.716-20.675 11.382 0 20.675 9.272 20.675 20.675v73.093h182.851v-73.093c0-11.402 9.272-20.675 20.741-20.675 11.331 0 20.649 9.272 20.649 20.675v93.716c0 5.473-2.248 10.752-6.098 14.602-3.845 3.937-9.175 6.072-14.577 6.072h-203.592v66.509c0 11.494-9.272 20.623-20.649 20.623-11.423 0-20.741-9.175-20.741-20.623v-66.509h-203.581c-5.448 0-10.778-2.181-14.623-6.026zM295.235 125.742c36.291 0 65.7-29.384 65.7-65.679s-29.409-65.679-65.7-65.679c-36.265 0-65.674 29.384-65.674 65.679s29.409 65.679 65.674 65.679zM743.439 125.742c-36.316 0-65.679-29.435-65.679-65.725 0-36.244 29.363-65.628 65.679-65.628s65.679 29.384 65.679 65.628c0.020 36.337-29.368 65.725-65.679 65.725zM771.22 883.415h-503.813c-21.417 0-38.774-17.382-38.774-38.748v-326.159c0-21.504 17.357-38.794 38.774-38.84h503.818c21.417 0 38.774 17.336 38.774 38.84v326.159c-0.005 21.458-17.362 38.748-38.779 38.748zM770.017 519.665h-501.432v323.799h501.432v-323.799zM650.092 407.404c0 20.951-17.106 38.052-38.149 38.052h-185.211c-21.064 0-38.17-17.055-38.17-38.052 0-2.826 0.374-5.56 0.906-8.248h259.671c0.532 2.688 0.952 5.422 0.952 8.248z" />
<glyph unicode="&#xe609;" d="M734.771 426.624c0-10.865-8.873-19.722-19.707-19.722h-149.888c-10.849 0-19.732 8.858-19.732 19.722v3.978c0 10.834 8.888 19.692 19.732 19.692h149.888c10.834 0 19.707-8.858 19.707-19.692v-3.978zM734.771 482.243c0-10.834-8.873-19.722-19.707-19.722h-149.888c-10.849 0-19.732 8.888-19.732 19.722v3.948c0 10.865 8.888 19.748 19.732 19.748h149.888c10.834 0 19.707-8.888 19.707-19.748v-3.948zM455.357 343.388l95.77-95.785c5.75-6.303 14.029-10.312 23.25-10.312h170.829c6.533 0 15.57-3.717 20.198-8.335l51.246-52.828c3.599-3.574 6.912-5.315 9.656-5.315 4.27 0 7.071 4.296 7.071 12.257v53.76c0 6.564-3.748 15.596-8.366 20.214l-32.614 34.125c0 0.031-52.521 52.536-52.521 52.536-3.686 3.978-8.873 6.595-14.725 6.595h-138.982c-10.89 0-19.692-8.827-19.692-19.748 0-10.89 8.801-19.692 19.692-19.692h97.336l10.424-10.424h-139.853l-70.851 70.835c-3.845 3.86-8.888 5.78-13.926 5.78-5.069 0-10.107-1.92-13.942-5.78-7.716-7.7-7.716-20.188 0-27.884zM554.65 331.162c0.307 17.106 14.3 30.956 31.508 30.956h138.982c3.313 0 6.564-0.522 9.626-1.51v14.725c0 10.865-8.873 19.748-19.707 19.748h-149.888c-10.849 0-19.732-8.888-19.732-19.748v-27.592c0.005-6.963 3.707-13.066 9.211-16.579zM538.737 573.87c0-15.16 0-30.351 0-45.542-16.799-2.785-33.475-5.693-49.91-8.801-5.519-10.132-7.316-24.044-14.694-32.323 8.494-15.421 20.111-27.822 29.363-42.547-8.945-12.605-19.692-23.439-32.323-32.384-13.271 10.194-27.459 19.574-41.139 29.42-10.501-5.197-20.285-11.039-33.761-13.24-2.514-17.516-6.042-34.068-8.817-51.405-15.145 0-30.362 0-45.512 0-1.393 17.684-5.955 32.266-7.363 49.894-12.442 4.296-24.714 8.596-35.21 14.751-13.445-10.542-27.085-20.997-42.634-29.42-10.66 10.399-22.636 19.456-30.812 32.384 10.281 13.588 21.448 26.486 29.348 42.547-5.258 9.964-10.353 20.070-13.215 32.323-17.065 3.487-36.055 5.053-51.42 10.25 0 14.669 0 29.394 0 44.088 18.227 1.306 32.85 6.359 51.42 7.347 3.077 13.097 8.566 23.757 13.215 35.256-8.96 14.054-19.533 26.547-27.909 41.124 8.929 12.605 19.707 23.409 32.297 32.297 12.78-10.716 26.455-20.475 41.155-29.332 11.459 4.157 20.751 10.542 33.777 13.215 2.294 17.777 4.705 35.374 8.817 51.405 14.725 0 29.394 0 44.058 0 2.396-17.69 5.924-34.243 8.817-51.405 11.894-3.835 22.784-8.566 33.761-13.215 15.232 8.714 27.863 20.096 42.604 29.332 10.67-10.399 22.636-19.43 30.858-32.297-9.759-13.763-18.749-28.227-29.363-41.124 4.152-11.996 11.284-21.028 13.184-35.256 18.591-0.983 33.198-6.036 51.41-7.342zM378.655 491.592c15.468 2.877 41.155 21.811 45.568 45.481 8.945 49.167-31.38 74.465-63.258 72.054-82.232-6.272-66.36-132.869 17.69-117.535z" />
<glyph unicode="&#xe60a;" d="M610.76 421.484c0-39.588-32.123-71.69-71.726-71.69-39.572 0-71.675 32.108-71.675 71.69s32.108 71.69 71.675 71.69c39.603 0 71.726-32.102 71.726-71.69zM567.685 335.099c0 0 67.697-16.394 81.132-109.747 0 0 5.233-34.724-20.526-53.023 0 0-78.428-48.906-184.827 0 0 0-22.769 11.94-20.931 44.416 0 0 16.579 146.002 145.152 118.354zM809.001 507.049c0-34.007-27.581-61.588-61.609-61.588-33.992 0-61.558 27.581-61.558 61.588 0 34.012 27.566 61.558 61.558 61.558 34.028 0 61.609-27.546 61.609-61.558zM771.999 432.845c0 0 58.173-14.116 69.719-94.31 0 0 4.475-29.824-17.649-45.537 0 0-67.359-42.004-158.776 0 0 0-19.553 10.271-17.971 38.195 0 0 14.244 125.389 124.677 101.652zM366.213 507.049c0-34.007-27.581-61.588-61.588-61.588s-61.578 27.581-61.578 61.588c0 34.012 27.566 61.558 61.573 61.558s61.594-27.546 61.594-61.558zM329.226 432.845c0 0 58.158-14.116 69.704-94.31 0 0 4.47-29.824-17.654-45.537 0 0-67.354-42.004-158.756 0 0 0-19.574 10.271-17.992 38.195 0.005 0 14.254 125.389 124.698 101.652zM283.607 813.036c31.493 0 57.016-13.742 57.016-30.643 0-16.937-25.523-30.643-57.016-30.643-31.473 0-57.001 13.706-57.001 30.643 0 16.901 25.523 30.643 57.001 30.643zM283.607 741.376c-31.288 0-57.272 11.837-62.781 27.479v-24.689c5.509-15.611 31.493-27.484 62.781-27.484 31.304 0 57.308 11.868 62.833 27.484v24.689c-5.53-15.642-31.529-27.479-62.833-27.479zM283.607 703.012c-31.288 0-57.272 11.868-62.781 27.479v-24.653c5.509-15.647 31.493-27.479 62.781-27.479 31.304 0 57.308 11.837 62.833 27.479v24.653c-5.53-15.611-31.529-27.479-62.833-27.479zM283.607 664.689c-31.288 0-57.272 11.832-62.781 27.474v-24.689c5.509-15.647 31.493-27.479 62.781-27.479 31.304 0 57.308 11.837 62.833 27.479v24.689c-5.53-15.642-31.529-27.474-62.833-27.474zM744.653 706.688c31.493 0 57.016-13.742 57.016-30.643 0-16.937-25.523-30.643-57.016-30.643-31.462 0-57.001 13.706-57.001 30.643 0.005 16.901 25.544 30.643 57.001 30.643zM744.637 631.050c-31.273 0-57.272 11.837-62.781 27.448v-24.658c5.509-15.647 31.508-27.479 62.781-27.479 31.304 0 57.308 11.832 62.833 27.479v24.658c-5.524-15.616-31.529-27.448-62.833-27.448zM535.818 791.168c31.493 0 57.016-13.706 57.016-30.612 0-16.937-25.523-30.643-57.016-30.643-31.473 0-57.016 13.706-57.016 30.643 0 16.906 25.544 30.612 57.016 30.612zM535.818 719.544c-31.288 0-57.272 11.837-62.781 27.479v-24.694c5.509-15.606 31.493-27.479 62.781-27.479 31.304 0 57.303 11.868 62.828 27.479v24.694c-5.519-15.647-31.519-27.479-62.828-27.479zM535.818 681.18c-31.288 0-57.272 11.837-62.781 27.479v-24.689c5.509-15.611 31.493-27.448 62.781-27.448 31.304 0 57.303 11.837 62.828 27.448v24.689c-5.519-15.642-31.519-27.479-62.828-27.479zM535.818 642.852c-31.288 0-57.272 11.837-62.781 27.448v-24.658c5.509-15.647 31.493-27.479 62.781-27.479 31.304 0 57.303 11.837 62.828 27.479v24.658c-5.519-15.611-31.519-27.448-62.828-27.448zM535.818 599.557c-31.288 0-57.272 11.837-62.781 27.443v-24.658c5.509-15.642 31.493-27.479 62.781-27.479 31.304 0 57.303 11.837 62.828 27.479v24.658c-5.519-15.606-31.519-27.443-62.828-27.443zM535.803 554.051c-31.288 0-57.272 11.837-62.781 27.479v-24.694c5.509-15.642 31.493-27.479 62.781-27.479 31.304 0 57.303 11.837 62.833 27.479v24.694c-5.53-15.642-31.529-27.479-62.833-27.479z" />
<glyph unicode="&#xe60b;" d="M523.218 777.405c-176.020 0-318.638-142.766-318.638-318.74s142.618-318.776 318.638-318.776c176.138 0 318.874 142.802 318.874 318.776s-142.73 318.74-318.874 318.74zM438.579 287.949l-6.738-51.604-125.266 147.359 35.251 29.778 62.884-74.030c23.66 68.403 92.078 203.023 284.687 330.819l25.487-38.395c-250.337-166.026-276.209-342.164-276.306-343.926z" />
<glyph unicode="&#xe60c;" d="M720.522 497.603v194.683l-94.321 96.594h-192.63v-291.277h-137.201l-34.606-350.090h503.818l81.147 350.090h-126.208zM474.962 747.489h129.956v-68.977h74.189v-180.91h-204.145v249.887zM503.148 539.894h146.058v-16.082h-146.058v16.082zM503.148 631.905h146.058v-16.082h-146.058v16.082zM503.148 585.902h146.058v-16.113h-146.058v16.113zM421.181 567.378h-32.732v35.574h-187.884l18.509-455.439h29.169v384.261h172.938zM728.576 567.378h35.625v-35.604h-35.625v35.604z" />
<glyph unicode="&#xe60d;" d="M499.968 218.609l21.53 9.462 188.406 4.598 19.21-11.761 7.844-13.686-97.347-46.372-101.919 15.795zM378.22 602.245h-98.437v98.437h98.437v-98.437zM297.692 620.114h62.638v62.659h-62.638v-62.659zM405.079 682.772h187.899v-17.869h-187.899v17.869zM405.079 646.994h161.055v-17.91h-161.055v17.91zM378.22 450.125h-98.437v98.396h98.437v-98.396zM297.692 467.994h62.638v62.659h-62.638v-62.659zM378.22 297.964h-98.437v98.478h98.437v-98.478zM297.692 315.909h62.638v62.618h-62.638v-62.618zM405.079 342.717h98.417v-17.91h-98.417v17.91zM540.063 548.521h-134.984v-17.869h115.814c5.806 6.6 12.232 12.554 19.169 17.869zM506.23 510.52c0.471 0.788 0.998 1.469 1.469 2.227h-102.62v-17.869h93.686c2.145 5.238 4.582 10.476 7.465 15.642zM492.979 476.969h-87.9v-17.91h84.521c0.758 5.955 1.869 11.95 3.379 17.91zM497.597 378.532h-92.518v-17.905h98.509c-2.145 5.842-4.163 11.756-5.99 17.905zM467.548 226.299c4.997 1.167 10.537 3.282 16.041 5.468 3.036 1.244 6.129 2.488 9.293 3.579h-238.49c-8.463 0-10.388 6.523-10.388 6.523v524.826c0 8.484 10.388 5.581 10.388 5.581h101.601c0-8.97 7.542-17.91 16.906-17.91h143.903c9.349 0 16.927 8.934 16.927 17.91h84.654c0 0 10.404 2.903 10.404-5.581v-191.288h8.934v0.563c8.822-1.357 17.91-3.881 26.865-7.429v216.438c0 13.271-15.232 23.112-29.276 23.112h-101.581c0 8.899-7.578 17.833-16.927 17.833h-143.898c-9.37 0-16.906-8.934-16.906-17.833h-118.533c-14.024 0-29.276-9.841-29.276-23.112v-561.357c0-13.307 15.252-24.090 29.276-24.090h166.825c13.778 12.063 34.022 20.019 63.258 26.767zM499.896 800.512c4.639 0 8.443-3.768 8.443-8.443s-3.789-8.443-8.443-8.443c-4.695 0-8.499 3.768-8.499 8.443s3.804 8.443 8.499 8.443zM389.832 800.512c4.675 0 8.463-3.768 8.463-8.443s-3.768-8.443-8.463-8.443c-4.675 0-8.443 3.768-8.443 8.443s3.784 8.443 8.443 8.443zM521.498 228.070c47.652-27.295 88.842-27.976 88.899-27.976 0.753 0 47.882 0.753 99.512 32.573-26.916 16.399-37.929 40.038-19.584 74.644 98.852 163.128 7.972 251.991-70.502 251.991 0.097-59.080-0.056-59.080 0 0-78.495 0-169.329-88.858-70.482-251.991 20.096-37.924 4.977-62.73-27.843-79.242zM767.754 206.771c-14.136 3.282-27.126 9.462-38.641 14.136-58.998-40.448-115.4-39.997-118.717-39.997 0 0-53.12 1.172-110.423 37.704-8.765-2.944-18.115-9.764-28.047-12.104-63.452-14.628-75.116-33.782-75.116-96.435h446.054c-0.010 62.648-11.658 82.063-75.11 96.696z" />
<glyph unicode="&#xe60e;" d="M811.264 516.726l33.848 13.624-34.632 24.694 31.38 12.718-198.738 141.317-123.274-37.908 16.753-14.234 102.584 31.703 163.205-116.301-111.084-45.148-9.503 7.654 102.938 40.315-147.021 105.697-94.188-29.88-35.722 30.024-147.907-48.338 9.462-7.624-164.644-50.949 30.822-27.909-30.735-9.508 31.273-28.083-31.273-9.651 31.273-28.114-31.273-9.62 31.273-28.145-31.273-9.62 31.273-28.109-31.273-9.651 199.199-180.987 139.822 57.068v-13.855l150.497 52.895v18.606l150.021 59.96-33.5 24.141 34.063 13.619-33.751 24.141 33.884 13.624-33.818 24.11 33.879 13.624-33.843 24.1zM634.435 660.326l111.764-80.364-80.563-31.56-17.070 14.341c-5.519 45.123-50.135 60.687-78.566 66.022l-9.651 8.084 74.086 23.475zM387.021 610.77l8.346-6.692-131.968-41.795 148.772-133.053 131.738 52.541-0.072-3.42v-6.871l-137.677-56.888-166.482 151.398 147.343 44.78zM509.629 512.092l20.705-16.696-114.284-44.749-115.983 103.782 112.681 35.676 8.084-6.492c-1.731-21.361 4.28-68.106 88.796-71.521zM402.324 393.062l141.517 58.424v-18.749l-135.997-55.526-167.322 151.398 9.39 3.046 152.412-138.593zM404.035 355.676l139.807 57.062v-17.736l-135.997-55.532-167.322 151.373 10.040 3.272 153.472-138.44zM404.035 317.942l139.807 57.037v-17.736l-135.997-55.526-167.322 151.398 10.040 3.246 153.472-138.419zM404.035 280.182l139.807 57.062v-17.736l-135.997-55.526-167.322 151.368 10.040 3.277 153.472-138.445zM407.844 226.248l-167.322 151.342 11.116 3.308 152.151-138.47 140.052 57.062v-17.736l-135.997-55.506zM670.556 501.192v-187.479l-102.984-39.096v212.644l-19.825 15.969-115.021 93.629-16.737 13.972-7.91 6.636-10.025 8.172 105.651 34.488 11.607-9.677 7.229-6.083 123.407-103.665 15.186-13.594 9.416-10.952v-14.956h0.005zM805.914 497.193l-111.575-44.575v17.736l95.288 38.17 16.287-11.331zM789.279 546.806l16.256-11.909-111.201-44.544v18.289l94.945 38.164zM805.914 383.933l-111.575-44.544v17.736l95.288 38.139 16.287-11.331zM805.914 421.668l-111.575-44.544v17.736l95.288 38.164 16.287-11.356zM805.914 459.428l-111.575-44.544v17.736l95.288 38.164 16.287-11.356z" />
<glyph unicode="&#xe60f;" d="M795.407 443.551c-27.008 0-48.901-7.946-48.901-17.777v-17.777c0.026-9.825 21.893-17.777 48.901-17.777 26.993 0 48.86 7.946 48.876 17.777v0 17.777c-0.005 9.83-21.868 17.777-48.876 17.777zM795.407 265.8c-27.008 0-48.901 7.951-48.901 17.777v-17.777c0.026-9.825 21.893-17.777 48.901-17.777 26.993 0 48.86 7.951 48.876 17.777v17.777c-0.005-9.83-21.868-17.777-48.876-17.777zM795.407 301.322c-27.008 0-48.901 7.946-48.901 17.802v-17.802c0.026-9.769 21.893-17.746 48.901-17.746 26.993 0 48.86 7.977 48.876 17.746v17.802c-0.005-9.856-21.868-17.802-48.876-17.802zM795.407 336.901c-27.008 0-48.901 7.946-48.901 17.777v-17.777c0.026-9.8 21.893-17.777 48.901-17.777 26.993 0 48.86 7.977 48.876 17.777v17.777c-0.005-9.83-21.868-17.777-48.876-17.777zM795.407 372.449c-27.008 0-48.901 7.946-48.901 17.777v-17.777c0.026-9.825 21.893-17.777 48.901-17.777 26.993 0 48.86 7.946 48.876 17.777v17.777c-0.005-9.83-21.868-17.777-48.876-17.777zM795.407 230.221c-27.008 0-48.901 7.977-48.901 17.777v-17.777c0.026-9.8 21.893-17.746 48.901-17.746 26.993 0 48.86 7.946 48.876 17.746v17.802c-0.005-9.825-21.868-17.802-48.876-17.802zM795.407 194.698c-27.008 0-48.901 7.921-48.901 17.777v-17.777c0.026-9.825 21.893-17.777 48.901-17.777 26.993 0 48.86 7.946 48.876 17.777v17.777c-0.005-9.856-21.868-17.777-48.876-17.777zM679.854 336.901c-27.008 0-48.891-7.977-48.891-17.777v-17.802c0.015-9.769 21.893-17.746 48.891-17.746s48.891 7.977 48.891 17.746v17.802c0 9.8-21.898 17.777-48.891 17.777zM679.854 265.8c-27.008 0-48.891 7.951-48.891 17.777v-17.777c0.015-9.825 21.893-17.777 48.891-17.777s48.891 7.951 48.891 17.777v17.777c0-9.83-21.898-17.777-48.891-17.777zM679.854 230.221c-27.008 0-48.891 7.977-48.891 17.777v-17.777c0.015-9.8 21.893-17.746 48.891-17.746s48.891 7.946 48.891 17.746v17.802c0-9.825-21.898-17.802-48.891-17.802zM679.854 194.698c-27.008 0-48.891 7.921-48.891 17.777v-17.777c0.015-9.825 21.893-17.777 48.891-17.777s48.891 7.946 48.891 17.777v17.777c0-9.856-21.898-17.777-48.891-17.777zM691.092 354.243c-17.208 49.454-60.175 126.162-166.538 221.972v0.23h-142.459v-0.261c-192.307-173.184-177.505-284.17-177.505-284.17 0-53.99 43.776-97.777 97.751-97.777h302.234c2.903 0 5.755 0.205 8.602 0.461v124.426c0 26.245 35.912 35.553 66.678 35.553 3.697-0.005 7.47-0.148 11.238-0.435zM470.973 256.896h-35.533v35.548h35.533v-35.548zM497.044 363.172c-15.13-11.822-26.071-20.403-26.071-44.052h-35.533c0 40.955 22.932 58.936 39.695 72.054 15.186 11.878 22.502 18.324 22.502 34.596 0 31.155-13.297 44.452-44.452 44.452-31.13 0-44.436-13.297-44.436-44.452h-35.553c0 50.842 29.148 80 79.99 80s80-29.164 80-80c0-34.304-20.029-49.966-36.142-62.597zM452.92 611.994v0h71.654c0 0 72.837 74.972 44.175 89.308-17.777 8.873-39.035 17.777-53.079 17.777-18.033 0-35.809-17.777-62.49-17.777-26.65 0-44.436 17.777-62.474 17.777-14.034 0-35.277-8.904-53.064-17.777-28.657-14.336 44.191-89.308 44.191-89.308h71.086z" />
<glyph unicode="&#xe610;" d="M727.9 505.231l54.646-82.596c0 0 20.792-25.539 49.321-6.508 0 0 23.762 17.203 7.122 45.737l-111.094 168.745-102.81 25.539-137.83-134.277 2.975-93.86 4.163-8.335-266.194-216.868c0 0-5.944-13.65 2.975-21.422 0 0 10.097-8.899 20.792 0l269.763 219.264c0 0 3.948 4.782 13.85 5.381 0 0 13.302 3.85 18.217 17.239 0 0-0.881 9.196 13.384 16.005 0 0 5.33 4.449 4.434 11.29 0 0-3.855 7.741-10.993 11.592l0.317 33.879 35.651 37.729-3.569-106.675-98.939-226.673c0 0-8.018-34.304 22.733-45 0 0 25.851-12.022 42.793 17.403l94.904 192.497 106.061-194.289c0 0 16.922-36.966 53.473-18.033 0 0 27.633 12.687 13.814 43.438l-108.887 219.694 8.929 89.103zM743.926 725.96c0-35.937-29.133-65.070-65.070-65.070s-65.070 29.133-65.070 65.070c0 35.937 29.133 65.070 65.070 65.070 35.937 0 65.070-29.133 65.070-65.070zM251.96 236.083l219.249 180.040-35.656 42.747c0 0-17.234 22.615-46.93 11.622l-174.095-145.3c0 0-19.031-27.93 0-48.123l37.432-40.986zM409.667 195.866c0-27.167-22.016-49.157-49.152-49.157s-49.152 21.985-49.152 49.157c0 27.095 22.016 49.116 49.152 49.116s49.152-22.016 49.152-49.116z" />
<glyph unicode="&#xe611;" d="M756.695 859.766h-341.468l-41.129-38.764v-66.202c0-11.72-9.549-21.268-21.248-21.268h-106.102l-2.191-2.304-40.525-42.757v-118.292c0-176.031 0-464.236 0-464.236 0-23.485 19.057-42.542 42.501-42.542h242.36l-39.854 50.488h-177.244c-11.725 0-21.274 9.549-21.274 21.268v553.743l124.242 1.48c0 0 23.224 1.997 31.862 9.288 8.643 7.291 7.946 25.267 7.946 25.267v93.46h315.53c11.725 0 21.274-9.549 21.274-21.274v-447.478l47.836 48.358v419.267c0.005 23.439-19.031 42.496-42.516 42.496zM751.375 135.153c0-11.766-9.549-21.268-21.274-21.268h-16.819l-34.207-50.488h77.619c23.485 0 42.522 19.011 42.522 42.496v116.818l-47.836-57.779v-29.778zM831.56 360.586c-9.226 4.296-21.356 2.432-27.479-4.255l-220.805-241.449-119.511 107.182c-6.774 6.036-18.668 7.209-27.284 2.693-8.637-4.562-11.136-13.24-5.709-20.014l136.724-169.953c3.666-4.562 10.266-7.337 17.388-7.337h0.195c7.142 0 13.783 2.908 17.388 7.552l235.94 305.352c5.417 7.035 2.396 15.974-6.845 20.229z" />
<glyph unicode="&#xe612;" d="M255.171 241.536v513.229h238.807v-106.097c0-1.408 0.563-2.78 1.551-3.768 1.004-1.024 2.381-1.551 3.804-1.551h104.607v-107.366c8.417 0.916 16.942 1.408 25.554 1.408 7.644 0 15.201-0.492 22.646-1.198v118.989c0 6.446-2.519 12.503-7.076 17.085l-123.94 123.674c-4.511 4.475-10.691 7.045-17.014 7.045h-273.091c-6.354 0-12.539-2.57-17.014-7.045-4.506-4.475-7.081-10.711-7.081-17.050v-561.49c0-6.339 2.57-12.539 7.081-17.050 4.46-4.475 10.66-7.081 17.014-7.081h237.896c-11.218 14.904-20.818 30.961-28.319 48.261h-185.426zM629.699 509.809c-99.036 0-179.364-80.317-179.364-179.405 0-99.016 80.328-179.364 179.364-179.364v179.364h179.384c-0.015 99.092-80.297 179.405-179.384 179.405zM663.199 296.909v-179.369c99.052 0 179.384 80.282 179.384 179.369h-179.384z" />
<glyph unicode="&#xe613;" d="M622.346 774.83h-333.491c-45.307 0-82.007-36.695-82.007-82.002v-421.258c0-45.271 36.695-82.002 82.007-82.002h333.491c45.322 0 82.038 36.7 82.038 82.002v0 421.258c0 45.307-36.716 82.002-82.038 82.002zM371.436 272.445c0-13.343-10.834-24.161-24.212-24.161h-68.572c-13.384 0-24.233 10.819-24.233 24.161v24.233c0 13.348 10.849 24.202 24.233 24.202h68.572c13.384 0 24.212-10.854 24.212-24.202v-24.233zM371.436 379.003c0-13.343-10.834-24.233-24.212-24.233h-68.572c-13.384 0-24.233 10.885-24.233 24.233v24.228c0 13.312 10.849 24.202 24.233 24.202h68.572c13.384 0 24.212-10.885 24.212-24.202v-24.228zM371.436 485.591c0-13.42-10.834-24.305-24.212-24.305h-68.572c-13.384 0-24.233 10.885-24.233 24.305v24.161c0 13.343 10.849 24.197 24.233 24.197h68.572c13.384 0 24.212-10.849 24.212-24.197v-24.161zM512.737 272.445c0-13.343-10.849-24.161-24.197-24.161h-68.572c-13.379 0-24.212 10.819-24.212 24.161v24.233c0 13.348 10.819 24.202 24.212 24.202h68.572c13.343 0 24.233-10.854 24.233-24.202v-24.233h-0.036zM512.737 379.003c0-13.343-10.849-24.233-24.197-24.233h-68.572c-13.379 0-24.212 10.885-24.212 24.233v24.228c0 13.312 10.819 24.202 24.212 24.202h68.572c13.343 0 24.233-10.885 24.233-24.202v-24.228h-0.036zM513.142 483.379c0-13.384-10.87-24.233-24.197-24.233h-68.588c-13.379 0-24.218 10.849-24.218 24.233v24.161c0 13.414 10.839 24.233 24.218 24.233h68.588c13.327 0 24.197-10.819 24.197-24.233v-24.161zM654.060 272.445c0-13.343-10.798-24.197-24.182-24.197h-68.572c-13.399 0-24.233 10.854-24.233 24.197v24.233c0 13.348 10.834 24.202 24.233 24.202h68.572c13.399 0 24.182-10.854 24.182-24.202v-24.233zM654.060 379.003c0-13.343-10.798-24.233-24.182-24.233h-68.572c-13.399 0-24.233 10.885-24.233 24.233v24.228c0 13.312 10.834 24.202 24.233 24.202h68.572c13.399 0 24.182-10.885 24.182-24.202v-24.228zM654.459 482.924c0-13.384-10.849-24.305-24.228-24.305h-68.557c-13.394 0-24.212 10.921-24.212 24.305v24.156c0 13.384 10.819 24.233 24.212 24.233h68.557c13.394 0 24.228-10.854 24.228-24.233v-24.156zM659.4 594.493c0-12.047-9.784-21.847-21.847-21.847h-365.86c-12.083 0-21.842 9.8-21.842 21.847v96.44c0 12.119 9.759 21.878 21.842 21.878h365.86c12.078 0 21.827-9.764 21.827-21.878v-96.435h0.020zM575.391 663.26c0-10.501-2.038-18.401-6.113-23.706-4.055-5.268-10.025-7.9-17.894-7.9-7.537 0-13.343 2.739-17.49 8.146-4.111 5.376-6.164 13.24-6.164 23.465 0 20.895 7.885 31.324 23.654 31.324 7.726 0 13.676-2.668 17.787-8.11 4.132-5.448 6.221-13.174 6.221-23.219zM545.014 663.117c0-5.791 0.512-10.117 1.526-12.995 1.055-2.806 2.703-4.28 4.987-4.28 4.388 0 6.569 5.76 6.569 17.28 0 11.448-2.176 17.142-6.569 17.142-2.284 0-3.932-1.372-4.987-4.214-1.019-2.816-1.526-7.137-1.526-12.933zM622.556 693.181l-55.593-100.265h-16.471l55.629 100.265h16.435zM645.612 623.222c0-10.465-2.033-18.335-6.129-23.598-4.070-5.304-10.025-7.936-17.874-7.936-7.552 0-13.384 2.703-17.49 8.11-4.111 5.437-6.18 13.204-6.18 23.424 0 20.895 7.9 31.288 23.67 31.288 7.726 0 13.645-2.668 17.787-8.11 4.127-5.407 6.216-13.133 6.216-23.178zM615.235 623.084c0-5.796 0.512-10.117 1.51-12.995 1.070-2.847 2.688-4.28 5.002-4.28 4.372 0 6.569 5.791 6.569 17.28 0 11.448-2.196 17.137-6.569 17.137-2.314 0-3.932-1.367-5.002-4.214-1.004-2.816-1.51-7.101-1.51-12.928zM846.060 172.708c0-39.301-31.857-71.153-71.153-71.153h-238.848c-39.281 0-71.137 31.852-71.137 71.153v238.812c0 39.301 31.852 71.153 71.137 71.153h238.848c39.296 0 71.153-31.852 71.153-71.153v-238.812zM509.578 420.721h299.059v-16.717h-299.059v16.717zM509.578 370.888h299.059v-16.753h-299.059v16.753zM509.578 323.686h299.059v-16.717h-299.059v16.717zM509.578 273.818h299.059v-16.686h-299.059v16.686zM509.578 222.121h299.059v-16.717h-299.059v16.717zM509.578 172.288h299.059v-16.717h-299.059v16.717zM740.874 745.754h26.24v-210.258h-26.24v210.258zM740.874 529.311h26.235l-13.117-31.959zM740.772 750.531h26.235c0 0 2.775 15.944-13.102 16.573 0 0.005-13.133 0.671-13.133-16.573z" />
<glyph unicode="&#xe614;" d="M528.906 509.251c-5.944 0-11.433 0.906-16.481 2.637-5.038 1.756-9.37 4.393-12.989 7.88-3.615 3.456-6.441 7.818-8.417 13.030-1.976 5.212-2.975 11.187-2.975 18.033 0 6.323 0.937 12.063 2.842 17.275 1.889 5.125 4.659 9.544 8.274 13.266 3.487 3.569 7.803 6.292 12.959 8.228 5.135 1.93 10.747 2.898 16.865 2.898 3.369 0 6.41-0.205 9.103-0.553 2.693-0.379 5.212-0.881 7.511-1.464 2.401-0.701 4.582-1.464 6.543-2.314 1.93-0.85 3.661-1.608 5.11-2.345v-19.415h-2.345c-1.024 0.85-2.284 1.905-3.794 3.046-1.536 1.198-3.251 2.314-5.197 3.487-1.992 1.111-4.111 2.109-6.41 2.867-2.284 0.819-4.741 1.203-7.363 1.203-2.913 0-5.652-0.44-8.289-1.377-2.606-0.906-5.033-2.432-7.26-4.536-2.109-2.048-3.835-4.716-5.135-8.11-1.3-3.333-1.961-7.434-1.961-12.237 0-5.007 0.701-9.19 2.135-12.534 1.403-3.395 3.195-6.031 5.345-7.967 2.181-1.961 4.623-3.364 7.322-4.214 2.693-0.85 5.33-1.285 7.962-1.285 2.504 0 4.992 0.41 7.439 1.172 2.473 0.732 4.731 1.725 6.81 3.046 1.756 1.024 3.4 2.135 4.905 3.308 1.495 1.172 2.739 2.196 3.707 3.046h2.135v-19.149c-1.992-0.906-3.912-1.756-5.74-2.55-1.828-0.758-3.732-1.464-5.755-2.048-2.621-0.732-5.079-1.285-7.363-1.725-2.299-0.394-5.463-0.599-9.492-0.599zM518.646 607.575h6.779v-110.152h-6.779v110.152zM530.755 607.575h6.764v-110.152h-6.764v110.152zM298.004 506.911c-5.944 0-11.448 0.906-16.481 2.606-5.038 1.756-9.37 4.393-12.989 7.88-3.645 3.487-6.426 7.818-8.433 13.030-1.992 5.212-2.985 11.187-2.985 18.038 0 6.323 0.952 12.088 2.852 17.275 1.92 5.151 4.659 9.574 8.274 13.261 3.502 3.543 7.803 6.292 12.974 8.228 5.135 1.93 10.762 2.929 16.85 2.929 3.369 0 6.41-0.205 9.103-0.584 2.708-0.379 5.228-0.85 7.511-1.464 2.417-0.707 4.582-1.464 6.543-2.284 1.946-0.85 3.676-1.638 5.135-2.371v-19.415h-2.365c-0.993 0.85-2.268 1.905-3.809 3.046-1.505 1.198-3.251 2.345-5.181 3.487-1.961 1.142-4.096 2.109-6.4 2.872-2.299 0.788-4.741 1.198-7.363 1.198-2.913 0-5.668-0.471-8.289-1.377-2.652-0.911-5.033-2.401-7.276-4.511-2.109-2.048-3.825-4.746-5.14-8.141-1.3-3.338-1.946-7.439-1.946-12.211 0-5.033 0.691-9.196 2.109-12.559 1.434-3.369 3.22-6.031 5.371-7.936 2.166-1.992 4.623-3.425 7.306-4.25 2.708-0.85 5.34-1.26 7.967-1.26 2.519 0 4.992 0.379 7.45 1.142 2.458 0.732 4.731 1.756 6.81 3.046 1.772 1.024 3.384 2.14 4.905 3.308 1.495 1.172 2.739 2.196 3.707 3.046h2.15v-19.149c-2.022-0.906-3.937-1.756-5.765-2.545-1.812-0.763-3.732-1.464-5.755-2.048-2.606-0.707-5.079-1.26-7.363-1.669-2.304-0.415-5.448-0.62-9.477-0.62zM287.744 605.204h6.764v-110.182h-6.764v110.182zM299.837 605.204h6.779v-110.182h-6.779v110.182zM755.83 509.251c-5.944 0-11.464 0.906-16.486 2.637-5.038 1.756-9.385 4.393-13 7.88-3.62 3.456-6.41 7.818-8.422 13.030-1.992 5.212-2.985 11.187-2.985 18.033 0 6.323 0.952 12.063 2.857 17.275 1.92 5.125 4.654 9.544 8.269 13.266 3.502 3.569 7.803 6.292 12.959 8.228 5.135 1.93 10.772 2.898 16.881 2.898 3.354 0 6.385-0.205 9.088-0.553 2.708-0.379 5.228-0.881 7.511-1.464 2.401-0.701 4.582-1.464 6.543-2.314 1.946-0.85 3.676-1.608 5.125-2.345v-19.415h-2.345c-1.009 0.85-2.284 1.905-3.825 3.046-1.505 1.198-3.236 2.314-5.181 3.487-1.961 1.111-4.096 2.109-6.4 2.867-2.299 0.819-4.741 1.203-7.378 1.203-2.898 0-5.652-0.44-8.274-1.377-2.637-0.906-5.048-2.432-7.291-4.536-2.094-2.048-3.809-4.716-5.11-8.11-1.3-3.333-1.961-7.434-1.961-12.237 0-5.007 0.707-9.19 2.125-12.534 1.418-3.395 3.19-6.031 5.34-7.967 2.196-1.961 4.639-3.364 7.322-4.214 2.693-0.85 5.34-1.285 7.982-1.285 2.504 0 4.977 0.41 7.434 1.172 2.458 0.732 4.731 1.725 6.794 3.046 1.772 1.024 3.379 2.135 4.905 3.308 1.51 1.172 2.755 2.196 3.722 3.046h2.135v-19.149c-2.007-0.906-3.912-1.756-5.755-2.55-1.812-0.758-3.732-1.464-5.755-2.048-2.606-0.732-5.064-1.285-7.363-1.725-2.289-0.394-5.453-0.599-9.462-0.599zM745.564 607.575h6.764v-110.152h-6.764v110.152zM757.658 607.575h6.779v-110.152h-6.779v110.152z" />
<glyph unicode="&#xe615;" d="M817.71 652.242c0-39.485-5.791-74.388-17.239-104.653-11.587-30.31-27.858-56.545-48.968-78.884-21.089-22.246-46.397-42.179-75.873-59.837-29.501-17.516-62.756-33.556-99.855-48.015v-133.714h-206.203v197.632c27.74 7.414 52.792 15.017 75.269 22.851 22.405 7.828 45.998 20.577 70.589 38.144 23.055 15.621 41.088 33.833 54.252 54.508 13 20.716 19.558 44.216 19.558 70.446 0 39.071-12.539 66.975-37.821 83.569-25.098 16.589-60.58 24.934-106.276 24.934-28.109 0-59.884-6.026-95.222-18.125-35.338-12.145-67.599-27.761-96.911-46.904h-23.429v178.668c24.98 10.522 63.452 21.55 115.41 33.091 51.953 11.494 104.653 17.285 158.162 17.285 96.451 0 173.015-21.274 229.632-63.913 56.632-42.547 84.925-98.258 84.925-167.081zM592.159-7.153h-236.652v154.619h236.657v-154.619z" />
<glyph unicode="&#xe616;" d="M561.055 694.702c32.87-4.874 63.375 17.756 68.265 50.545 4.895 32.824-17.741 63.36-50.647 68.234-32.768 4.905-63.324-17.792-68.183-50.58-4.869-32.788 17.797-63.324 50.565-68.198zM621.788 459.868c0.343 2.319 0.732 4.603 0.732 6.989l1.265 127.539 44.938-30.776 29.399-84.152c-0.645-0.819-1.567-1.331-2.202-2.217-5.212-7.803-7.122-17.178-5.299-26.45l0.922-4.669-33.388-6.579 35.154-208.42 150.733 29.619-51.195 205.281-32.123-6.272-0.922 4.634c-2.504 12.815-12.052 22.769-23.91 26.655l-20.741 95.124c-1.587 5.729-5.146 10.737-10.138 14.147l-102.62 70.282c-0.205 0.169-0.425 0.271-0.614 0.374l-1.94 1.326-0.102-0.133c-7.619 4.634-16.394 7.532-25.974 7.634-14.515 0.374-27.863-6.067-37.335-16.189l-0.118 0.102-1.024-1.5c-2.058-2.319-3.917-4.874-5.504-7.567l-61.312-84.792-106.168-32.276 1.756-6.922c-15.611-3.681-27.474-17.009-27.474-33.705v-4.772h-34.063l-8.146-223.892h153.626l-8.182 223.892h-32.701v4.772c0 3.133-1.024 5.965-1.823 8.863l84.475 16.973c5.811 1.5 10.926 4.905 14.433 9.815l17.587 24.305-0.829-89.093c-0.015-1.5 0.271-2.97 0.425-4.465l-48.092-126.31c-1.244-3.308-1.997-6.815-2.079-10.394l3.118-164.48 48.241-1.229 11.945 158.551 31.288 82.14 11.366-81.526c0.492-2.97 1.311-5.862 2.54-8.658l75.597-145.807 41.631 18.78-57.482 149.043-17.669 126.408zM746.45 456.904l-40.576-7.977-0.922 4.669c-0.988 5.146 0.051 10.291 2.796 14.756l26.67 7.465c5.524-2.796 9.815-7.839 11.059-14.244l0.973-4.669zM392.484 496.916v-4.736h-41.293v4.736c0 9.923 7.107 17.823 16.343 19.84l4.449-17.654 19.308 3.886c0.594-1.946 1.193-3.891 1.193-6.072zM327.926 513.347l-32.937 20.823-89.093-131.83 77.691-48.502 5.591 152.212h36.572z" />
<glyph unicode="&#xe617;" d="M837.56 359.311c0 75.233-61.041 136.274-136.228 136.274h-363.423c-75.305 0-136.228-60.995-136.228-136.274v-363.397h635.884v363.397zM519.634 563.722c87.823 0 158.986 71.112 158.986 158.94 0 87.823-71.158 159.032-158.986 159.032-87.88 0-158.971-71.209-158.971-159.032 0-87.828 71.091-158.94 158.971-158.94zM462.935 495.13l34.401-74.368h40.11l32.097 74.368zM497.336 420.762l-25.242-242.964 56.192-47.027 41.257 48.128-32.097 241.864" />
<glyph unicode="&#xe618;" d="M352.179 516.014c0-29.404-23.823-53.258-53.248-53.258-29.404 0-53.243 23.854-53.243 53.258 0 29.379 23.839 53.233 53.243 53.233 29.42 0 53.248-23.854 53.248-53.233zM608.451 414.49c0-29.409-23.839-53.228-53.248-53.228-29.42 0-53.263 23.823-53.263 53.228 0 29.404 23.844 53.258 53.263 53.258 29.409 0 53.248-23.854 53.248-53.258zM780.406 414.49c0-29.411-23.842-53.253-53.253-53.253-29.411 0-53.253 23.842-53.253 53.253 0 29.411 23.842 53.253 53.253 53.253 29.411 0 53.253-23.842 53.253-53.253zM368.819 406.175c0 0 29.583-59.546-10.353-75.822 0 0-76.703-34.575-145.49 15.892 0 0-9.477 8.52-2.427 29.614 0 0 19.994 100.204 103.567 79.109l91.689 50.294c0 0 9.62 5.934 15.539 0l10.737-17.746c0 0 5.888-7.757-2.97-13.307l-60.293-68.035zM419.492 506.644l105.395 82.929 13.307-17.009-106.112-85.043zM577.577 352.916c0 0 50.294-12.191 60.278-81.521 0 0 3.876-25.795-15.258-39.393 0 0-58.24-36.342-137.298 0 0 0-16.906 8.873-15.524 33.019-0.005 0 12.303 108.426 107.802 87.895zM748.431 350.331c0 0 50.278-12.221 60.268-81.521 0 0 3.876-25.795-15.263-39.393 0 0-58.24-36.342-137.277 0 0 0-16.922 8.873-15.539 33.019 0 0 12.303 108.431 107.812 87.895z" />
<glyph unicode="&#xe619;" d="M530.345 682.010c-8.084 0-15.565 1.213-22.431 3.553-6.825 2.432-12.733 5.98-17.644 10.701-4.931 4.721-8.74 10.655-11.428 17.71-2.734 7.055-4.091 15.237-4.091 24.489 0 8.602 1.311 16.451 3.901 23.46 2.57 7.055 6.308 13.041 11.238 18.084 4.746 4.813 10.609 8.556 17.618 11.218 6.984 2.57 14.602 3.927 22.922 3.927 4.557 0 8.694-0.282 12.385-0.794 3.666-0.517 7.081-1.121 10.209-1.966 3.251-0.937 6.216-2.012 8.878-3.128 2.668-1.121 5.002-2.196 6.963-3.18v-26.404h-3.2c-1.382 1.167-3.087 2.524-5.166 4.157-2.053 1.592-4.413 3.18-7.055 4.721-2.668 1.541-5.586 2.852-8.719 3.927-3.108 1.075-6.426 1.587-9.999 1.587-3.948 0-7.711-0.604-11.264-1.869-3.579-1.213-6.845-3.272-9.887-6.17-2.877-2.76-5.212-6.4-6.989-10.982-1.751-4.582-2.662-10.138-2.662-16.686 0-6.825 0.957-12.477 2.898-17.060 1.935-4.582 4.367-8.177 7.291-10.793 2.944-2.708 6.262-4.582 9.928-5.704 3.645-1.167 7.265-1.777 10.844-1.777 3.415 0 6.779 0.517 10.117 1.541 3.343 1.029 6.426 2.432 9.231 4.157 2.406 1.403 4.628 2.944 6.687 4.485 2.033 1.638 3.738 3.036 5.023 4.157h2.918v-26.030c-2.734-1.213-5.33-2.386-7.828-3.415-2.452-1.075-5.069-2.012-7.803-2.806-3.548-1.029-6.917-1.777-10.025-2.289-3.123-0.589-7.398-0.824-12.861-0.824zM516.388 815.672h9.185v-149.78h-9.185v149.78zM532.844 815.672h9.206v-149.78h-9.206v149.78zM674.842 711.875c1.802 8.832 2.78 17.807 2.78 27.479 0 79.263-64.287 143.099-143.498 143.099-79.283 0-143.544-63.652-143.544-142.915 0-9.677 0.983-18.836 2.78-27.668h-102.835v-716.989h185.887v141.604h115.082v-141.604h185.887v716.995h-102.538zM453.535 819.128c21.524 21.545 50.145 33.367 80.594 33.367 30.423 0 59.023-11.822 80.543-33.367 21.524-21.499 33.367-50.145 33.367-80.568 0-30.423-11.843-59.023-33.367-80.568-21.519-21.499-50.125-33.321-80.543-33.321-30.449 0-59.075 11.822-80.594 33.321-21.499 21.545-33.367 50.145-33.367 80.568-0.005 30.469 11.868 59.069 33.367 80.568zM405.586 269.256h-70.804v88.515h70.804v-88.515zM405.586 384.312h-70.804v88.515h70.804v-88.515zM405.586 499.42h-70.804v79.677h70.804v-79.677zM511.785 269.256h-70.799v88.515h70.804v-88.515zM511.785 384.312h-70.799v88.515h70.804v-88.515zM511.785 499.42h-70.799v79.677h70.804v-79.677zM618.015 269.256h-61.947v88.515h61.947v-88.515zM618.015 384.312h-61.947v88.515h61.947v-88.515zM618.015 499.42h-61.947v79.677h61.947v-79.677zM733.076 269.256h-70.804v88.515h70.804v-88.515zM733.076 384.312h-70.804v88.515h70.804v-88.515zM733.076 499.42h-70.804v79.677h70.804v-79.677z" />
<glyph unicode="&#xe61a;" d="M523.325 562.888c88.023 0 159.334 71.286 159.334 159.309 0 87.982-71.332 159.355-159.334 159.355-88.074 0-159.304-71.373-159.304-159.355 0-88.023 71.229-159.309 159.304-159.309zM705.403 494.618h-364.206c-75.428 0-136.535-61.123-136.535-136.581v-364.16h637.276v364.16c0 75.361-61.174 136.581-136.535 136.581zM403.461 177.772c-36.106 40.581-23.332 112.881-23.332 112.881 23.332 102.917 134.728 107.274 134.728 107.274v30.239c7.885 15.217 22.262 7.7 22.262 7.7l80.466-63.401c8.76-10.849 0-19.384 0-19.384l-78.469-60.196c-22.19-8.397-23.327 9.969-23.327 9.969v27.781c-60.851-3.292-69.755-52.408-69.755-52.408-7.117-34.181 8.627-54.077 8.627-54.077 8.305-10.296-1.413-15.258-1.413-15.258l-36.961-31.119c-8.371-5.012-12.826 0-12.826 0zM657.080 218.071c-23.327-102.958-134.641-107.269-134.641-107.269v-30.239c-7.926-15.217-22.303-7.7-22.303-7.7l-80.532 63.396c-8.694 10.808 0 19.343 0 19.343l78.515 60.247c22.216 8.392 23.306-9.974 23.306-9.974v-27.781c60.943 3.292 69.801 52.362 69.801 52.362 7.091 34.227-8.607 54.124-8.607 54.124-8.3 10.245 1.372 15.258 1.372 15.258l36.987 31.119c8.346 5.012 12.78 0 12.78 0 36.116-40.581 23.322-112.886 23.322-112.886z" />
<glyph unicode="&#xe61b;" d="M761.4 568.745l55.608 13.563-16.082-54.897-16.072-54.989-79.058 82.79z" />
<glyph unicode="&#xe61c;" d="M520.494 448.036c0-14.423 23.982-28.785 53.571-28.785s53.555 14.392 53.555 28.785-23.967 28.749-53.555 28.749-53.571-14.362-53.571-28.749zM292.27 424.929c0-151.992 123.182-275.174 275.2-275.174 151.977 0 275.174 123.182 275.174 275.174 0 152.023-123.197 275.174-275.174 275.174-42.854 0-83.384-9.764-119.516-27.295 2.202-9.636 3.41-19.717 3.41-30.116 0-74.358-60.339-134.651-134.687-134.651-3.835 0-7.685 0.189-11.474 0.476-8.371-26.342-12.933-54.431-12.933-83.589zM749.865 456.371l-213.632-135.101-139.356 63.903 15.181 9.385 124.175-55.854 198.415 125.655 15.217-7.987zM749.865 427.336l-213.632-135.096-139.356 63.872 15.181 9.446 124.175-55.885 198.415 125.655 15.217-7.992zM749.865 485.407l-213.632-135.096-139.356 63.872 213.627 135.101 139.361-63.877zM201.185 642.688c0-63.775 51.702-115.476 115.492-115.476 63.811 0 115.507 51.702 115.507 115.476 0 63.78-51.697 115.512-115.507 115.512-63.79 0-115.492-51.732-115.492-115.512zM331.858 687.862v-33.28h33.27c6.543 0 11.873-5.33 11.873-11.889 0-6.528-5.33-11.848-11.873-11.848h-33.27v-33.316c0-6.497-5.612-11.505-12.14-11.505-6.61 0-11.622 5.007-11.622 11.505v33.316h-33.27c-6.543 0-11.884 5.325-11.884 11.848 0 6.564 5.34 11.889 11.884 11.889h33.27v33.28c0 6.528 5.33 11.889 11.873 11.889 6.579 0 11.889-5.356 11.889-11.889z" />
<glyph unicode="&#xe61d;" d="M707.118 545.5c-9.155 0-17.608 1.362-25.364 4.055-7.736 2.693-14.392 6.712-19.973 12.099-5.545 5.345-9.871 11.986-12.923 19.994-3.052 7.972-4.593 17.229-4.593 27.715 0 9.728 1.475 18.591 4.378 26.527 2.924 7.931 7.158 14.72 12.723 20.424 5.366 5.489 11.991 9.656 19.907 12.672 7.916 2.98 16.563 4.449 25.933 4.449 5.171 0 9.836-0.287 13.983-0.86 4.163-0.573 8.038-1.326 11.556-2.258 3.681-1.075 7.055-2.227 10.051-3.523 2.995-1.326 5.637-2.514 7.88-3.625v-29.829h-3.61c-1.562 1.331-3.517 2.872-5.868 4.7-2.314 1.797-4.992 3.553-7.972 5.35-3.031 1.72-6.298 3.231-9.836 4.413-3.533 1.183-7.286 1.828-11.325 1.828-4.47 0-8.704-0.717-12.723-2.12-4.055-1.398-7.736-3.732-11.203-6.963-3.231-3.123-5.852-7.286-7.88-12.457-1.992-5.171-3.016-11.448-3.016-18.847 0-7.68 1.096-14.106 3.267-19.313 2.191-5.166 4.936-9.226 8.238-12.206 3.359-3.016 7.107-5.166 11.233-6.461 4.147-1.29 8.218-1.935 12.262-1.935 3.855 0 7.68 0.573 11.433 1.72 3.789 1.147 7.265 2.693 10.445 4.7 2.729 1.582 5.222 3.267 7.537 5.059 2.335 1.828 4.239 3.374 5.729 4.7h3.282v-29.435c-3.087-1.362-6.011-2.693-8.847-3.876-2.78-1.219-5.745-2.258-8.832-3.159-4.019-1.147-7.823-2.043-11.325-2.621-3.528-0.594-8.376-0.916-14.546-0.916zM691.323 696.586h10.409v-169.318h-10.409v169.318zM709.914 696.586h10.409v-169.318h-10.409v169.318zM352.179 541.875c-9.139 0-17.608 1.326-25.364 4.055-7.736 2.693-14.392 6.712-19.958 12.099-5.56 5.315-9.871 11.986-12.923 19.994-3.067 8.003-4.593 17.229-4.593 27.715 0 9.728 1.454 18.591 4.378 26.527 2.908 7.931 7.142 14.751 12.723 20.424 5.35 5.453 11.991 9.692 19.907 12.636 7.895 2.98 16.548 4.485 25.917 4.485 5.166 0 9.851-0.323 13.998-0.86 4.163-0.573 8.023-1.331 11.54-2.299 3.681-1.044 7.055-2.227 10.071-3.517 2.995-1.29 5.617-2.514 7.859-3.589v-29.865h-3.61c-1.541 1.367-3.517 2.908-5.852 4.7-2.335 1.828-4.992 3.589-7.987 5.345-3.031 1.761-6.298 3.231-9.815 4.449-3.533 1.183-7.306 1.797-11.325 1.797-4.47 0-8.724-0.681-12.723-2.079-4.055-1.398-7.752-3.732-11.182-6.963-3.251-3.159-5.903-7.322-7.916-12.488-1.992-5.171-2.995-11.412-2.995-18.811 0-7.716 1.075-14.106 3.267-19.313 2.191-5.166 4.915-9.226 8.238-12.206 3.338-3.016 7.107-5.207 11.233-6.497 4.147-1.254 8.202-1.935 12.242-1.935 3.855 0 7.68 0.609 11.433 1.756 3.804 1.116 7.286 2.693 10.481 4.669 2.708 1.613 5.207 3.302 7.521 5.1 2.314 1.828 4.219 3.41 5.709 4.7h3.282v-29.435c-3.067-1.362-6.011-2.693-8.832-3.876-2.801-1.219-5.76-2.258-8.847-3.123-4.004-1.183-7.808-2.084-11.325-2.657-3.528-0.614-8.397-0.937-14.551-0.937zM336.384 692.997h10.409v-169.354h-10.409v169.354zM354.995 692.997h10.409v-169.354h-10.409v169.354zM354.995 321.725h43.218l-21.606-37.402-21.612-37.478-21.606 37.478-21.612 37.402zM696.53 330.092h43.213l-43.213-74.844-21.632 37.407-21.591 37.437z" />
<glyph unicode="&#xe61e;" d="M710.753 529.439c-9.196 0-17.72 1.347-25.518 4.040-7.777 2.729-14.51 6.804-20.111 12.191-5.617 5.386-9.958 12.083-13.020 20.163-3.087 8.044-4.644 17.331-4.644 27.889 0 9.815 1.49 18.749 4.429 26.757 2.939 7.977 7.194 14.817 12.795 20.557 5.422 5.458 12.083 9.708 20.060 12.723 7.956 2.975 16.655 4.5 26.117 4.5 5.192 0 9.907-0.287 14.085-0.85 4.198-0.604 8.084-1.382 11.643-2.304 3.707-1.065 7.086-2.232 10.102-3.543 3.031-1.311 5.688-2.514 7.941-3.651v-30.013h-3.63c-1.562 1.311-3.528 2.903-5.883 4.675-2.355 1.843-5.033 3.615-8.044 5.386-3.052 1.807-6.344 3.261-9.907 4.47-3.543 1.239-7.337 1.843-11.392 1.843-4.5 0-8.771-0.676-12.831-2.13-4.076-1.418-7.798-3.722-11.269-6.979-3.241-3.19-5.898-7.337-7.936-12.585-2.022-5.212-3.031-11.52-3.031-18.959 0-7.762 1.080-14.213 3.277-19.42 2.217-5.212 4.961-9.318 8.294-12.334 3.384-3.046 7.178-5.212 11.32-6.518 4.183-1.28 8.274-1.915 12.334-1.915 3.896 0 7.741 0.568 11.52 1.705 3.83 1.172 7.352 2.729 10.542 4.746 2.729 1.597 5.243 3.333 7.603 5.105 2.319 1.843 4.234 3.405 5.74 4.746h3.297v-29.66c-3.087-1.382-6.042-2.693-8.878-3.896-2.836-1.239-5.796-2.268-8.914-3.19-4.040-1.137-7.869-2.022-11.412-2.621-3.569-0.64-8.458-0.927-14.679-0.927zM694.861 681.62h10.47v-170.573h-10.47v170.573zM713.605 681.62h10.47v-170.573h-10.47v170.573zM353.29 525.788c-9.196 0-17.72 1.347-25.533 4.040-7.782 2.729-14.51 6.769-20.111 12.191-5.601 5.386-9.958 12.083-13.020 20.132-3.087 8.044-4.623 17.367-4.623 27.93 0 9.815 1.469 18.714 4.408 26.721 2.944 7.977 7.214 14.817 12.81 20.557 5.407 5.53 12.083 9.743 20.060 12.759 7.956 3.011 16.671 4.47 26.102 4.47 5.212 0 9.907-0.287 14.106-0.855 4.183-0.568 8.064-1.347 11.643-2.268 3.686-1.065 7.071-2.268 10.117-3.579 2.995-1.311 5.673-2.478 7.921-3.579v-30.085h-3.63c-1.562 1.311-3.543 2.908-5.903 4.71-2.34 1.843-5.033 3.615-8.023 5.386-3.067 1.772-6.364 3.261-9.907 4.47-3.558 1.203-7.352 1.807-11.412 1.807-4.5 0-8.771-0.671-12.81-2.089-4.091-1.418-7.813-3.758-11.269-6.984-3.261-3.19-5.919-7.368-7.956-12.58-2.002-5.212-3.011-11.52-3.011-18.959 0-7.798 1.080-14.213 3.261-19.42 2.217-5.243 4.982-9.354 8.31-12.334 3.369-3.046 7.158-5.212 11.32-6.518 4.163-1.28 8.274-1.951 12.334-1.951 3.881 0 7.726 0.604 11.52 1.736 3.809 1.172 7.337 2.765 10.527 4.746 2.729 1.597 5.243 3.297 7.603 5.105 2.319 1.843 4.234 3.405 5.74 4.751h3.313v-29.66c-3.103-1.382-6.062-2.693-8.893-3.937-2.816-1.167-5.796-2.232-8.914-3.118-4.040-1.172-7.869-2.053-11.412-2.662-3.574-0.645-8.443-0.932-14.664-0.932zM337.377 677.934h10.506v-170.537h-10.506v170.537zM356.142 677.934h10.47v-170.537h-10.47v170.537zM700.104 347.597h-43.535l21.775 37.673 21.76 37.709 43.52-75.382zM356.142 339.128h-43.535l21.775 37.673 21.76 37.745 21.76-37.745 21.76-37.673z" />
<glyph unicode="&#xe61f;" d="M398.326 658.089c0-25.446-20.695-46.1-46.172-46.1-25.462 0-46.085 20.654-46.085 46.1 0 25.482 20.623 46.136 46.085 46.136 25.477 0 46.172-20.654 46.172-46.136zM370.586 602.516c0 0 43.571-10.532 52.209-70.589 0 0 3.369-22.333-13.22-34.135 0 0-50.442-31.432-118.897 0 0 0-14.653 7.66-13.476 28.59 0.005 0.005 10.675 93.916 93.384 76.134zM744.412 658.089c0-25.446-20.675-46.1-46.152-46.1-25.446 0-46.1 20.654-46.1 46.1 0 25.482 20.659 46.136 46.1 46.136 25.472 0 46.152-20.654 46.152-46.136zM716.708 602.516c0 0 43.551-10.532 52.204-70.589 0 0 3.354-22.333-13.22-34.135 0 0-50.463-31.432-118.912 0 0 0-14.653 7.66-13.476 28.59 0.005 0.005 10.675 93.916 93.404 76.134zM696.223 358.4h-43.008l43.008 74.45 21.509-37.212 21.478-37.238zM356.393 350.054h-42.988l21.494 37.207 21.494 37.279 43.008-74.486z" />
<glyph unicode="&#xe620;" d="M581.688 115.164c0 71.977 58.399 130.355 130.376 130.355s130.355-58.378 130.355-130.355M335.473 419.277c39.977 0 72.412-32.42 72.412-72.376 0-40.033-32.435-72.448-72.412-72.448-40.013 0-72.412 32.415-72.412 72.448 0.005 39.962 32.404 72.376 72.412 72.376zM205.117 115.164c0 71.977 58.358 130.355 130.355 130.355s130.355-58.378 130.355-130.355M683.054 450.171l-105.713 70.523h-24.622c-36.803 0-57.923 21.105-57.923 57.907v173.834c0 36.767 21.12 57.907 57.923 57.907h231.757c36.787 0 57.943-21.14 57.943-57.907v-173.834c0-36.803-21.156-57.907-57.943-57.907h-101.422v-70.523zM552.714 781.409c-20.849 0-28.954-8.161-28.954-28.974v-173.834c0-20.849 8.105-28.933 28.954-28.933h33.377l68.024-45.399v45.399h130.355c20.833 0 28.954 8.084 28.954 28.933v173.834c0 20.813-8.12 28.974-28.954 28.974h-231.757zM552.714 491.725c-19.4 0-36.26 4.68-49.802 13.164l-66.053-44.058v45.363h-115.886c-20.849 0-28.954 8.12-28.954 28.969v188.303c0 20.849 8.105 28.974 28.954 28.974h144.84c0 10.516 1.705 20.055 4.296 28.974h-149.135c-36.803 0-57.907-21.14-57.907-57.943v-188.298c0-36.838 21.105-57.943 57.907-57.943h86.917v-70.492l105.759 70.492h10.117c17.93 0 32.072 5.115 41.917 14.505h-12.969zM393.4 577.992c-8.013 0-14.49 6.492-14.49 14.469v29.619c0 7.977 6.472 14.469 14.49 14.469 26.127 0 28.969 20.27 28.969 28.974 0 15.954-12.979 28.974-28.969 28.974-15.995 0-28.989-13.020-28.989-28.974 0-8.013-6.472-14.505-14.49-14.505-7.956 0-14.449 6.492-14.449 14.505 0 31.944 25.984 57.907 57.928 57.907s57.923-25.964 57.923-57.907c0-29.553-16.952-50.836-43.438-56.494v-16.568c0.005-7.982-6.472-14.469-14.484-14.469zM393.4 564.137c8.013 0 14.484-6.451 14.484-14.469s-6.472-14.505-14.484-14.505c-8.013 0-14.49 6.492-14.49 14.505s6.477 14.469 14.49 14.469zM668.278 620.81c-8.033 0-14.505 6.492-14.505 14.505v29.553c0 8.013 6.472 14.505 14.505 14.505 26.107 0 28.954 20.234 28.954 28.974 0 15.954-12.979 29.010-28.954 29.010-16.010 0-29.010-13.051-29.010-29.010 0-7.977-6.456-14.469-14.469-14.469-7.997 0-14.469 6.492-14.469 14.469 0 31.944 25.984 57.943 57.943 57.943 31.928 0 57.907-25.999 57.907-57.943 0-29.553-16.952-50.872-43.438-56.494v-16.532c0.005-8.018-6.472-14.51-14.464-14.51zM668.278 606.961c7.997 0 14.469-6.492 14.469-14.505 0-7.977-6.472-14.469-14.469-14.469-8.033 0-14.505 6.492-14.505 14.469 0 8.013 6.472 14.505 14.505 14.505zM712.064 419.277c39.997 0 72.412-32.42 72.412-72.376 0-40.033-32.415-72.448-72.412-72.448-40.013 0-72.448 32.415-72.448 72.448-0.005 39.962 32.43 72.376 72.448 72.376z" />
<glyph unicode="&#xe621;" d="M602.286 534.41c0-41.293-33.485-74.793-74.808-74.793-41.293 0-74.793 33.495-74.793 74.793 0 41.349 33.495 74.824 74.793 74.824 41.324 0 74.808-33.469 74.808-74.824zM557.368 444.319c0 0 70.646-17.142 84.664-114.54 0 0 5.448-36.244-21.422-55.311 0 0-81.828-51.046-192.85 0 0 0-23.757 12.472-21.832 46.346 0.005 0 17.29 152.325 151.439 123.505zM809.155 623.688c0-35.451-28.769-64.22-64.261-64.22-35.482 0-64.23 28.769-64.23 64.22 0 35.512 28.749 64.282 64.23 64.282 35.492 0 64.261-28.769 64.261-64.282zM770.56 546.299c0 0 60.687-14.72 72.735-98.386 0 0 4.675-31.135-18.417-47.514 0 0-70.277-43.863-165.658 0 0 0-20.429 10.716-18.749 39.803 0-0.005 14.863 130.862 130.089 106.097zM371.297 623.688c0-35.451-28.78-64.22-64.282-64.22-35.482 0-64.23 28.769-64.23 64.22 0 35.512 28.749 64.282 64.23 64.282 35.497 0 64.282-28.769 64.282-64.282zM332.687 546.299c0 0 60.698-14.72 72.735-98.386 0 0 4.675-31.135-18.412-47.514 0 0-70.282-43.863-165.658 0 0 0-20.398 10.716-18.749 39.803-0.005-0.005 14.858 130.862 130.084 106.097z" />
<glyph unicode="&#xe622;" d="M601.165 500.265l-74.767 87.946 21.033 17.792 37.524-44.191c14.141 40.827 54.968 121.201 169.923 197.484l15.227-22.917c-149.407-99.123-164.854-204.257-164.91-205.338l-4.029-30.776zM309.1 449.905h434.637v-58.619h-434.637v58.619zM309.1 339.799h434.637v-58.66h-434.637v58.66zM309.1 223.852h434.637v-58.578h-434.637v58.578z" />
<glyph unicode="&#xe623;" d="M682.711 649.16c0-18.207-14.833-33.055-33.024-33.055h-251.018c-18.176 0-33.009 14.848-33.009 33.055v6.584c0 18.145 14.833 33.029 33.009 33.029h251.013c18.161 0 33.024-14.884 33.024-33.029v-6.584zM682.711 742.267c0-18.145-14.833-33.024-33.024-33.024h-251.018c-18.176 0-33.009 14.879-33.009 33.024v6.646c0 18.145 14.833 33.024 33.009 33.024h251.013c18.161 0 33.024-14.879 33.024-33.024v-6.646zM214.733 509.706l160.394-160.425c9.661-10.557 23.496-17.234 38.953-17.234h286.111c10.926 0 26.086-6.267 33.807-14.029l85.857-88.402c6.016-6.001 11.571-8.909 16.133-8.909 7.188 0 11.863 7.173 11.863 20.526v90.020c0 10.941-6.277 26.086-13.983 33.818l-54.641 57.196c-0.026 0.031-87.962 87.962-87.962 87.962-6.205 6.707-14.894 11.028-24.673 11.028h-232.765c-18.232 0-33.009-14.792-33.009-33.029 0-18.232 14.776-33.055 33.009-33.055h163.011l17.469-17.439h-234.24l-118.646 118.671c-6.456 6.441-14.894 9.677-23.352 9.677-8.438 0-16.911-3.236-23.337-9.677-12.908-12.913-12.908-33.823 0-46.7zM381.041 489.206c0.543 28.703 23.982 51.876 52.787 51.876h232.765c5.545 0 10.982-0.855 16.113-2.529v24.704c0 18.171-14.833 33.024-33.024 33.024h-251.013c-18.176 0-33.009-14.853-33.009-33.024v-46.228c0-11.704 6.175-21.939 15.38-27.822z" />
<glyph unicode="&#xe624;" d="M757.591 836.5h-468.234c-47.724 0-86.446-38.723-86.446-86.451v-631.194c0-47.764 38.723-86.446 86.446-86.446h468.234c47.724 0 86.446 38.687 86.446 86.446v631.194c0 47.724-38.723 86.451-86.446 86.451zM609.679 734.024c31.98 0 57.923-25.943 57.923-57.923s-25.943-57.923-57.923-57.923-57.923 25.943-57.923 57.923 25.943 57.923 57.923 57.923zM361.308 589.773c31.98 0 57.943-25.943 57.943-57.923 0-32.020-25.964-57.964-57.943-57.964s-57.923 25.938-57.923 57.964c0 31.98 25.943 57.923 57.923 57.923zM363.581 143.38c0 0 49.034 126.213 9.743 229.064-13.015-29.768-69.939-8.704-69.939-8.704 42.557 5.996 45.64 52.593 45.681 53.053-4.562 6.077-9.477 11.991-15.012 17.654 0 0 86.323-0.292 127.217 90.573 0 0.005 106.767-279.409-97.69-381.64zM619.151 185.395c0 0 30.188 228.029-46.597 347.54-13.722 20.193-73.452 6.866-73.452 6.866 20.756 29.481 48.010 24.612 48.097 24.566-7.245 6.999-15.14 13.24-23.736 18.57 0 0 138.496-37.478 167.27 35.226 0 0.010 120.366-155.228-71.583-432.768z" />
</font>
</defs>
</svg>
